<?xml version="1.0" encoding="UTF-8" standalone="no"?>
<!-- Created with Inkscape (http://www.inkscape.org/) -->

<svg
   width="297mm"
   height="210mm"
   viewBox="0 0 297 210"
   version="1.1"
   id="svg5"
   xml:space="preserve"
   inkscape:export-filename="bitmap.svg"
   inkscape:export-xdpi="96"
   inkscape:export-ydpi="96"
   xmlns:inkscape="http://www.inkscape.org/namespaces/inkscape"
   xmlns:sodipodi="http://sodipodi.sourceforge.net/DTD/sodipodi-0.dtd"
   xmlns="http://www.w3.org/2000/svg"
   xmlns:svg="http://www.w3.org/2000/svg"><sodipodi:namedview
     id="namedview7"
     pagecolor="#ffffff"
     bordercolor="#999999"
     borderopacity="1"
     inkscape:showpageshadow="0"
     inkscape:pageopacity="0"
     inkscape:pagecheckerboard="0"
     inkscape:deskcolor="#d1d1d1"
     inkscape:document-units="mm"
     showgrid="false"
     inkscape:zoom="0.46769781"
     inkscape:cx="397.69269"
     inkscape:cy="391.27829"
     inkscape:window-width="1366"
     inkscape:window-height="705"
     inkscape:window-x="-8"
     inkscape:window-y="-8"
     inkscape:window-maximized="1"
     inkscape:current-layer="layer1" /><defs
     id="defs2" /><g
     inkscape:label="Capa 1"
     inkscape:groupmode="layer"
     id="layer1"><path
       id="path661-9"
       style="fill:#3535cc;fill-opacity:1;stroke:#000000;stroke-width:1.48894;stroke-dasharray:none;stroke-opacity:1"
       d="m 117.80141,82.287786 h 42.1048 l 10.41763,-35.787741 11.28582,35.787741 45.57736,0.136768 -36.75129,25.641126 13.16682,35.78776 -31.25782,-23.30794 -31.39768,23.31004 10.85649,-38.80651 z M 40.198981,148.69925 H 153.45043 l 20.18658,-15.17573 18.32543,15.17573 h 21.76721 l -11.45913,-37.36667 27.06432,-20.616145 -0.28885,-18.474285 -41.80838,-0.286179 -9.44906,-29.063231 -98.789588,0.286179 -2.720296,1.574892 -2.720292,2.290776 -2.290792,1.718047 -11.597187,34.934657 37.511793,28.062269 -38.800357,-0.14309 -3.293019,1.28854 -2.720349,1.43171 -1.718068,1.7182 -1.431732,1.86122 z m 16.540327,-38.15968 c 9.25e-4,0.0166 -0.01169,0.0266 -0.02696,0.0266 -0.01531,0 -0.02795,-0.01 -0.02696,-0.0266 -9.24e-4,-0.0166 0.01169,-0.0266 0.02696,-0.0266 0.01531,0 0.02795,0.01 0.02696,0.0266 z"
       sodipodi:nodetypes="ccccccccccccccccccccccccccccccccccscsc" /></g></svg>
